<svg xmlns="http://www.w3.org/2000/svg" width="520" height="497.1428571428571"><rect width="100%" height="100%" fill="#0D1116" rx="12"/><text x="20" y="47.285714285714285" font-family="sans-serif" font-size="24" fill="white">🏃‍♂️ Time Exercising</text><text x="40" y="101.57142857142857" font-family="sans-serif" font-size="14" fill="white">Sun</text><rect x="95" y="90.57142857142857" width="12" height="12" rx="2" fill="#17632A"/><rect x="110" y="90.57142857142857" width="12" height="12" rx="2" fill="#151B23"/><rect x="125" y="90.57142857142857" width="12" height="12" rx="2" fill="#151B23"/><text x="40" y="121.57142857142856" font-family="sans-serif" font-size="14" fill="white">Mon</text><rect x="80" y="110.57142857142856" width="12" height="12" rx="2" fill="#023A16"/><rect x="95" y="110.57142857142856" width="12" height="12" rx="2" fill="#151B23"/><rect x="110" y="110.57142857142856" width="12" height="12" rx="2" fill="#151B23"/><rect x="125" y="110.57142857142856" width="12" height="12" rx="2" fill="#151B23"/><text x="40" y="141.57142857142856" font-family="sans-serif" font-size="14" fill="white">Tue</text><rect x="80" y="130.57142857142856" width="12" height="12" rx="2" fill="#151B23"/><rect x="95" y="130.57142857142856" width="12" height="12" rx="2" fill="#151B23"/><rect x="110" y="130.57142857142856" width="12" height="12" rx="2" fill="#151B23"/><text x="40" y="161.57142857142856" font-family="sans-serif" font-size="14" fill="white">Wed</text><rect x="80" y="150.57142857142856" width="12" height="12" rx="2" fill="#023A16"/><rect x="95" y="150.57142857142856" width="12" height="12" rx="2" fill="#023A16"/><rect x="110" y="150.57142857142856" width="12" height="12" rx="2" fill="#151B23"/><text x="110" y="81.57142857142857" font-family="sans-serif" font-size="14" fill="white">Jul</text><text x="40" y="181.57142857142856" font-family="sans-serif" font-size="14" fill="white">Thu</text><rect x="80" y="170.57142857142856" width="12" height="12" rx="2" fill="#17632A"/><rect x="95" y="170.57142857142856" width="12" height="12" rx="2" fill="#151B23"/><rect x="110" y="170.57142857142856" width="12" height="12" rx="2" fill="#151B23"/><text x="40" y="201.57142857142856" font-family="sans-serif" font-size="14" fill="white">Fri</text><rect x="80" y="190.57142857142856" width="12" height="12" rx="2" fill="#151B23"/><rect x="95" y="190.57142857142856" width="12" height="12" rx="2" fill="#151B23"/><rect x="110" y="190.57142857142856" width="12" height="12" rx="2" fill="#151B23"/><text x="40" y="221.57142857142856" font-family="sans-serif" font-size="14" fill="white">Sat</text><rect x="80" y="210.57142857142856" width="12" height="12" rx="2" fill="#023A16"/><rect x="95" y="210.57142857142856" width="12" height="12" rx="2" fill="#023A16"/><rect x="110" y="210.57142857142856" width="12" height="12" rx="2" fill="#151B23"/><text x="20" y="275.85714285714283" font-family="sans-serif" font-size="24" fill="white">☀️ Time in Sunlight</text><text x="40" y="330.1428571428571" font-family="sans-serif" font-size="14" fill="white">Sun</text><rect x="95" y="319.1428571428571" width="12" height="12" rx="2" fill="#875015"/><rect x="110" y="319.1428571428571" width="12" height="12" rx="2" fill="#151B23"/><rect x="125" y="319.1428571428571" width="12" height="12" rx="2" fill="#151B23"/><text x="40" y="350.1428571428571" font-family="sans-serif" font-size="14" fill="white">Mon</text><rect x="80" y="339.1428571428571" width="12" height="12" rx="2" fill="#E0861D"/><rect x="95" y="339.1428571428571" width="12" height="12" rx="2" fill="#875015"/><rect x="110" y="339.1428571428571" width="12" height="12" rx="2" fill="#151B23"/><rect x="125" y="339.1428571428571" width="12" height="12" rx="2" fill="#151B23"/><text x="40" y="370.1428571428571" font-family="sans-serif" font-size="14" fill="white">Tue</text><rect x="80" y="359.1428571428571" width="12" height="12" rx="2" fill="#875015"/><rect x="95" y="359.1428571428571" width="12" height="12" rx="2" fill="#151B23"/><rect x="110" y="359.1428571428571" width="12" height="12" rx="2" fill="#151B23"/><text x="40" y="390.1428571428571" font-family="sans-serif" font-size="14" fill="white">Wed</text><rect x="80" y="379.1428571428571" width="12" height="12" rx="2" fill="#875015"/><rect x="95" y="379.1428571428571" width="12" height="12" rx="2" fill="#151B23"/><rect x="110" y="379.1428571428571" width="12" height="12" rx="2" fill="#51310d"/><text x="110" y="310.1428571428571" font-family="sans-serif" font-size="14" fill="white">Jul</text><text x="40" y="410.1428571428571" font-family="sans-serif" font-size="14" fill="white">Thu</text><rect x="80" y="399.1428571428571" width="12" height="12" rx="2" fill="#875015"/><rect x="95" y="399.1428571428571" width="12" height="12" rx="2" fill="#E0861D"/><rect x="110" y="399.1428571428571" width="12" height="12" rx="2" fill="#151B23"/><text x="40" y="430.1428571428571" font-family="sans-serif" font-size="14" fill="white">Fri</text><rect x="80" y="419.1428571428571" width="12" height="12" rx="2" fill="#c57a29"/><rect x="95" y="419.1428571428571" width="12" height="12" rx="2" fill="#51310d"/><rect x="110" y="419.1428571428571" width="12" height="12" rx="2" fill="#151B23"/><text x="40" y="450.1428571428571" font-family="sans-serif" font-size="14" fill="white">Sat</text><rect x="80" y="439.1428571428571" width="12" height="12" rx="2" fill="#E0861D"/><rect x="95" y="439.1428571428571" width="12" height="12" rx="2" fill="#151B23"/><rect x="110" y="439.1428571428571" width="12" height="12" rx="2" fill="#51310d"/></svg>